<svg xmlns="http://www.w3.org/2000/svg" width="1600" height="1040" viewBox="0 0 1600 1040"><rect width="1600" height="1040" fill="#f8fafc"/><rect width="1600" height="220" fill="#071a3a"/><text x="45" y="58" font-family="Arial,Helvetica,sans-serif" font-size="23" font-weight="700" fill="#8ec5ff" text-anchor="start">HOW IT WORKS · SNS-004</text><text x="45" y="125" font-family="Arial,Helvetica,sans-serif" font-size="46" font-weight="700" fill="white" text-anchor="start">LDR Photoresistor</text><text x="45" y="171" font-family="Arial,Helvetica,sans-serif" font-size="25" font-weight="400" fill="#d9e7ff" text-anchor="start">Sensors · simple 5-step explanation</text><circle cx="1188.0" cy="94.0" r="32.0" fill="#f5d16c" stroke="#172033" stroke-width="2.4000000000000004"/><line x1="1228.0" y1="94.0" x2="1242.4" y2="94.0" stroke="#d69e00" stroke-width="3.2"/><line x1="1216.284271247462" y1="122.2842712474619" x2="1226.4666088965482" y2="132.46660889654817" stroke="#d69e00" stroke-width="3.2"/><line x1="1188.0" y1="134.0" x2="1188.0" y2="148.4" stroke="#d69e00" stroke-width="3.2"/><line x1="1159.715728752538" y1="122.2842712474619" x2="1149.5333911034518" y2="132.4666088965482" stroke="#d69e00" stroke-width="3.2"/><line x1="1148.0" y1="94.0" x2="1133.6" y2="94.00000000000001" stroke="#d69e00" stroke-width="3.2"/><line x1="1159.715728752538" y1="65.7157287525381" x2="1149.5333911034518" y2="55.53339110345182" stroke="#d69e00" stroke-width="3.2"/><line x1="1188.0" y1="54.0" x2="1188.0" y2="39.6" stroke="#d69e00" stroke-width="3.2"/><line x1="1216.284271247462" y1="65.7157287525381" x2="1226.4666088965482" y2="55.533391103451805" stroke="#d69e00" stroke-width="3.2"/><path d="M1172.0 82.0 l32.0 0 l-32.0 24.0 l32.0 0" fill="none" stroke="#8a5a00" stroke-width="3.2"/><line x1="1176.0" y1="126.0" x2="1176.0" y2="146.0" stroke="#172033" stroke-width="2.4000000000000004"/><line x1="1200.0" y1="126.0" x2="1200.0" y2="146.0" stroke="#172033" stroke-width="2.4000000000000004"/><rect x="28" y="250" width="300" height="470" rx="20" fill="white" stroke="#d7e0eb" stroke-width="2"/><circle cx="66" cy="288" r="23" fill="#145cc6"/><text x="66" y="296" font-family="Arial,Helvetica,sans-serif" font-size="22" font-weight="700" fill="white" text-anchor="middle">1</text><text x="52" y="342" font-family="Arial,Helvetica,sans-serif" font-size="21" font-weight="700" fill="#172033" text-anchor="start">Voltage pushes</text><text x="52" y="369" font-family="Arial,Helvetica,sans-serif" font-size="21" font-weight="700" fill="#172033" text-anchor="start">current</text><circle cx="139.7" cy="452.4" r="32.8" fill="#f5d16c" stroke="#172033" stroke-width="2.46"/><line x1="180.7" y1="452.4" x2="195.45999999999998" y2="452.4" stroke="#d69e00" stroke-width="3.28"/><line x1="168.69137802864844" y1="481.39137802864843" x2="179.12827411896188" y2="491.8282741189619" stroke="#d69e00" stroke-width="3.28"/><line x1="139.7" y1="493.4" x2="139.7" y2="508.15999999999997" stroke="#d69e00" stroke-width="3.28"/><line x1="110.70862197135156" y1="481.39137802864843" x2="100.27172588103811" y2="491.8282741189619" stroke="#d69e00" stroke-width="3.28"/><line x1="98.7" y1="452.4" x2="83.94" y2="452.4" stroke="#d69e00" stroke-width="3.28"/><line x1="110.70862197135153" y1="423.4086219713516" x2="100.2717258810381" y2="412.9717258810381" stroke="#d69e00" stroke-width="3.28"/><line x1="139.7" y1="411.4" x2="139.7" y2="396.64" stroke="#d69e00" stroke-width="3.28"/><line x1="168.69137802864844" y1="423.4086219713515" x2="179.12827411896188" y2="412.9717258810381" stroke="#d69e00" stroke-width="3.28"/><path d="M123.3 440.1 l32.8 0 l-32.8 24.599999999999998 l32.8 0" fill="none" stroke="#8a5a00" stroke-width="3.28"/><line x1="127.4" y1="485.2" x2="127.4" y2="505.7" stroke="#172033" stroke-width="2.46"/><line x1="152.0" y1="485.2" x2="152.0" y2="505.7" stroke="#172033" stroke-width="2.46"/><text x="50" y="595" font-family="Arial,Helvetica,sans-serif" font-size="17" font-weight="400" fill="#475569" text-anchor="start">Electrical current wants to</text><text x="50" y="619" font-family="Arial,Helvetica,sans-serif" font-size="17" font-weight="400" fill="#475569" text-anchor="start">flow.</text><text x="50" y="690" font-family="Arial,Helvetica,sans-serif" font-size="16" font-weight="700" fill="#64748b" text-anchor="start">STEP 1 OF 5</text><rect x="342" y="250" width="300" height="470" rx="20" fill="white" stroke="#d7e0eb" stroke-width="2"/><circle cx="380" cy="288" r="23" fill="#145cc6"/><text x="380" y="296" font-family="Arial,Helvetica,sans-serif" font-size="22" font-weight="700" fill="white" text-anchor="middle">2</text><text x="366" y="342" font-family="Arial,Helvetica,sans-serif" font-size="21" font-weight="700" fill="#172033" text-anchor="start">Resistor slows it</text><circle cx="453.7" cy="452.4" r="32.8" fill="#f5d16c" stroke="#172033" stroke-width="2.46"/><line x1="494.7" y1="452.4" x2="509.46" y2="452.4" stroke="#d69e00" stroke-width="3.28"/><line x1="482.69137802864844" y1="481.39137802864843" x2="493.1282741189619" y2="491.8282741189619" stroke="#d69e00" stroke-width="3.28"/><line x1="453.7" y1="493.4" x2="453.7" y2="508.15999999999997" stroke="#d69e00" stroke-width="3.28"/><line x1="424.70862197135153" y1="481.39137802864843" x2="414.2717258810381" y2="491.8282741189619" stroke="#d69e00" stroke-width="3.28"/><line x1="412.7" y1="452.4" x2="397.94" y2="452.4" stroke="#d69e00" stroke-width="3.28"/><line x1="424.70862197135153" y1="423.4086219713516" x2="414.2717258810381" y2="412.9717258810381" stroke="#d69e00" stroke-width="3.28"/><line x1="453.7" y1="411.4" x2="453.7" y2="396.64" stroke="#d69e00" stroke-width="3.28"/><line x1="482.69137802864844" y1="423.4086219713515" x2="493.1282741189619" y2="412.9717258810381" stroke="#d69e00" stroke-width="3.28"/><path d="M437.3 440.1 l32.8 0 l-32.8 24.599999999999998 l32.8 0" fill="none" stroke="#8a5a00" stroke-width="3.28"/><line x1="441.4" y1="485.2" x2="441.4" y2="505.7" stroke="#172033" stroke-width="2.46"/><line x1="466.0" y1="485.2" x2="466.0" y2="505.7" stroke="#172033" stroke-width="2.46"/><text x="364" y="595" font-family="Arial,Helvetica,sans-serif" font-size="17" font-weight="400" fill="#475569" text-anchor="start">Resistance limits how much</text><text x="364" y="619" font-family="Arial,Helvetica,sans-serif" font-size="17" font-weight="400" fill="#475569" text-anchor="start">current flows.</text><text x="364" y="690" font-family="Arial,Helvetica,sans-serif" font-size="16" font-weight="700" fill="#64748b" text-anchor="start">STEP 2 OF 5</text><rect x="656" y="250" width="300" height="470" rx="20" fill="white" stroke="#d7e0eb" stroke-width="2"/><circle cx="694" cy="288" r="23" fill="#145cc6"/><text x="694" y="296" font-family="Arial,Helvetica,sans-serif" font-size="22" font-weight="700" fill="white" text-anchor="middle">3</text><text x="680" y="342" font-family="Arial,Helvetica,sans-serif" font-size="21" font-weight="700" fill="#172033" text-anchor="start">Energy becomes heat</text><circle cx="767.7" cy="452.4" r="32.8" fill="#f5d16c" stroke="#172033" stroke-width="2.46"/><line x1="808.7" y1="452.4" x2="823.46" y2="452.4" stroke="#d69e00" stroke-width="3.28"/><line x1="796.6913780286484" y1="481.39137802864843" x2="807.1282741189618" y2="491.8282741189619" stroke="#d69e00" stroke-width="3.28"/><line x1="767.7" y1="493.4" x2="767.7" y2="508.15999999999997" stroke="#d69e00" stroke-width="3.28"/><line x1="738.7086219713516" y1="481.39137802864843" x2="728.2717258810382" y2="491.8282741189619" stroke="#d69e00" stroke-width="3.28"/><line x1="726.7" y1="452.4" x2="711.94" y2="452.4" stroke="#d69e00" stroke-width="3.28"/><line x1="738.7086219713516" y1="423.4086219713516" x2="728.2717258810382" y2="412.9717258810381" stroke="#d69e00" stroke-width="3.28"/><line x1="767.7" y1="411.4" x2="767.7" y2="396.64" stroke="#d69e00" stroke-width="3.28"/><line x1="796.6913780286484" y1="423.4086219713515" x2="807.1282741189618" y2="412.9717258810381" stroke="#d69e00" stroke-width="3.28"/><path d="M751.3 440.1 l32.8 0 l-32.8 24.599999999999998 l32.8 0" fill="none" stroke="#8a5a00" stroke-width="3.28"/><line x1="755.4" y1="485.2" x2="755.4" y2="505.7" stroke="#172033" stroke-width="2.46"/><line x1="780.0" y1="485.2" x2="780.0" y2="505.7" stroke="#172033" stroke-width="2.46"/><text x="678" y="595" font-family="Arial,Helvetica,sans-serif" font-size="17" font-weight="400" fill="#475569" text-anchor="start">A tiny amount of energy is</text><text x="678" y="619" font-family="Arial,Helvetica,sans-serif" font-size="17" font-weight="400" fill="#475569" text-anchor="start">dissipated.</text><text x="678" y="690" font-family="Arial,Helvetica,sans-serif" font-size="16" font-weight="700" fill="#64748b" text-anchor="start">STEP 3 OF 5</text><rect x="970" y="250" width="300" height="470" rx="20" fill="white" stroke="#d7e0eb" stroke-width="2"/><circle cx="1008" cy="288" r="23" fill="#145cc6"/><text x="1008" y="296" font-family="Arial,Helvetica,sans-serif" font-size="22" font-weight="700" fill="white" text-anchor="middle">4</text><text x="994" y="342" font-family="Arial,Helvetica,sans-serif" font-size="21" font-weight="700" fill="#172033" text-anchor="start">Safe current</text><text x="994" y="369" font-family="Arial,Helvetica,sans-serif" font-size="21" font-weight="700" fill="#172033" text-anchor="start">continues</text><circle cx="1081.7" cy="452.4" r="32.8" fill="#f5d16c" stroke="#172033" stroke-width="2.46"/><line x1="1122.7" y1="452.4" x2="1137.46" y2="452.4" stroke="#d69e00" stroke-width="3.28"/><line x1="1110.6913780286484" y1="481.39137802864843" x2="1121.1282741189618" y2="491.8282741189619" stroke="#d69e00" stroke-width="3.28"/><line x1="1081.7" y1="493.4" x2="1081.7" y2="508.15999999999997" stroke="#d69e00" stroke-width="3.28"/><line x1="1052.7086219713515" y1="481.39137802864843" x2="1042.271725881038" y2="491.8282741189619" stroke="#d69e00" stroke-width="3.28"/><line x1="1040.7" y1="452.4" x2="1025.94" y2="452.4" stroke="#d69e00" stroke-width="3.28"/><line x1="1052.7086219713515" y1="423.4086219713516" x2="1042.271725881038" y2="412.9717258810381" stroke="#d69e00" stroke-width="3.28"/><line x1="1081.7" y1="411.4" x2="1081.7" y2="396.64" stroke="#d69e00" stroke-width="3.28"/><line x1="1110.6913780286484" y1="423.4086219713515" x2="1121.1282741189618" y2="412.9717258810381" stroke="#d69e00" stroke-width="3.28"/><path d="M1065.3 440.1 l32.8 0 l-32.8 24.599999999999998 l32.8 0" fill="none" stroke="#8a5a00" stroke-width="3.28"/><line x1="1069.4" y1="485.2" x2="1069.4" y2="505.7" stroke="#172033" stroke-width="2.46"/><line x1="1094.0" y1="485.2" x2="1094.0" y2="505.7" stroke="#172033" stroke-width="2.46"/><text x="992" y="595" font-family="Arial,Helvetica,sans-serif" font-size="17" font-weight="400" fill="#475569" text-anchor="start">The next component receives</text><text x="992" y="619" font-family="Arial,Helvetica,sans-serif" font-size="17" font-weight="400" fill="#475569" text-anchor="start">a safer current.</text><text x="992" y="690" font-family="Arial,Helvetica,sans-serif" font-size="16" font-weight="700" fill="#64748b" text-anchor="start">STEP 4 OF 5</text><rect x="1284" y="250" width="300" height="470" rx="20" fill="white" stroke="#d7e0eb" stroke-width="2"/><circle cx="1322" cy="288" r="23" fill="#145cc6"/><text x="1322" y="296" font-family="Arial,Helvetica,sans-serif" font-size="22" font-weight="700" fill="white" text-anchor="middle">5</text><text x="1308" y="342" font-family="Arial,Helvetica,sans-serif" font-size="21" font-weight="700" fill="#172033" text-anchor="start">LED stays protected</text><circle cx="1395.7" cy="452.4" r="32.8" fill="#f5d16c" stroke="#172033" stroke-width="2.46"/><line x1="1436.7" y1="452.4" x2="1451.46" y2="452.4" stroke="#d69e00" stroke-width="3.28"/><line x1="1424.6913780286484" y1="481.39137802864843" x2="1435.1282741189618" y2="491.8282741189619" stroke="#d69e00" stroke-width="3.28"/><line x1="1395.7" y1="493.4" x2="1395.7" y2="508.15999999999997" stroke="#d69e00" stroke-width="3.28"/><line x1="1366.7086219713515" y1="481.39137802864843" x2="1356.271725881038" y2="491.8282741189619" stroke="#d69e00" stroke-width="3.28"/><line x1="1354.7" y1="452.4" x2="1339.94" y2="452.4" stroke="#d69e00" stroke-width="3.28"/><line x1="1366.7086219713515" y1="423.4086219713516" x2="1356.271725881038" y2="412.9717258810381" stroke="#d69e00" stroke-width="3.28"/><line x1="1395.7" y1="411.4" x2="1395.7" y2="396.64" stroke="#d69e00" stroke-width="3.28"/><line x1="1424.6913780286484" y1="423.4086219713515" x2="1435.1282741189618" y2="412.9717258810381" stroke="#d69e00" stroke-width="3.28"/><path d="M1379.3 440.1 l32.8 0 l-32.8 24.599999999999998 l32.8 0" fill="none" stroke="#8a5a00" stroke-width="3.28"/><line x1="1383.4" y1="485.2" x2="1383.4" y2="505.7" stroke="#172033" stroke-width="2.46"/><line x1="1408.0" y1="485.2" x2="1408.0" y2="505.7" stroke="#172033" stroke-width="2.46"/><text x="1306" y="595" font-family="Arial,Helvetica,sans-serif" font-size="17" font-weight="400" fill="#475569" text-anchor="start">Common use: protect an LED</text><text x="1306" y="619" font-family="Arial,Helvetica,sans-serif" font-size="17" font-weight="400" fill="#475569" text-anchor="start">from excess current.</text><text x="1306" y="690" font-family="Arial,Helvetica,sans-serif" font-size="16" font-weight="700" fill="#64748b" text-anchor="start">STEP 5 OF 5</text><rect x="28" y="755" width="760" height="220" rx="20" fill="white" stroke="#d7e0eb" stroke-width="2"/><text x="58" y="805" font-family="Arial,Helvetica,sans-serif" font-size="22" font-weight="700" fill="#145cc6" text-anchor="start">REMEMBER</text><text x="58" y="857" font-family="Arial,Helvetica,sans-serif" font-size="27" font-weight="700" fill="#172033" text-anchor="start">SENSES → notices the world</text><text x="58" y="910" font-family="Arial,Helvetica,sans-serif" font-size="20" font-weight="400" fill="#475569" text-anchor="start">Robotics chain: SENSE → THINK → POWER → MOVE → RESPOND</text><rect x="812" y="755" width="760" height="220" rx="20" fill="#fffaf0" stroke="#ecd69a" stroke-width="2"/><text x="842" y="805" font-family="Arial,Helvetica,sans-serif" font-size="22" font-weight="700" fill="#a35b00" text-anchor="start">WATCH OUT</text><text x="842" y="858" font-family="Arial,Helvetica,sans-serif" font-size="21" font-weight="400" fill="#172033" text-anchor="start">Check the exact voltage, pin labels and wiring for</text><text x="842" y="888" font-family="Arial,Helvetica,sans-serif" font-size="21" font-weight="400" fill="#172033" text-anchor="start">the module you buy.</text><text x="28" y="1015" font-family="Arial,Helvetica,sans-serif" font-size="17" font-weight="400" fill="#64748b" text-anchor="start">Robotics, Made Simple · component explainer</text></svg>